<?xml version="1.0" encoding="UTF-8" standalone="no"?>
<!-- Created with Inkscape (http://www.inkscape.org/) -->

<svg
   width="50.589939mm"
   height="50.589939mm"
   viewBox="0 0 50.589939 50.589939"
   version="1.1"
   id="svg5"
   inkscape:version="1.2.2 (b0a8486541, 2022-12-01)"
   sodipodi:docname="logo.svg"
   xmlns:inkscape="http://www.inkscape.org/namespaces/inkscape"
   xmlns:sodipodi="http://sodipodi.sourceforge.net/DTD/sodipodi-0.dtd"
   xmlns="http://www.w3.org/2000/svg"
   xmlns:svg="http://www.w3.org/2000/svg">
  <sodipodi:namedview
     id="namedview7"
     pagecolor="#ffffff"
     bordercolor="#000000"
     borderopacity="0.25"
     inkscape:showpageshadow="2"
     inkscape:pageopacity="0.0"
     inkscape:pagecheckerboard="0"
     inkscape:deskcolor="#d1d1d1"
     inkscape:document-units="mm"
     showgrid="false"
     inkscape:zoom="0.98520767"
     inkscape:cx="-0.50750721"
     inkscape:cy="199.95784"
     inkscape:window-width="1920"
     inkscape:window-height="1011"
     inkscape:window-x="0"
     inkscape:window-y="0"
     inkscape:window-maximized="1"
     inkscape:current-layer="layer1" />
  <defs
     id="defs2">
    <inkscape:path-effect
       effect="spiro"
       id="path-effect2242"
       is_visible="true"
       lpeversion="1" />
    <inkscape:path-effect
       effect="spiro"
       id="path-effect1240"
       is_visible="true"
       lpeversion="1" />
    <clipPath
       clipPathUnits="userSpaceOnUse"
       id="clipPath2254">
      <circle
         style="display:inline;fill:#000000;stroke-width:0.264583"
         id="circle2256"
         cx="105"
         cy="34.324009"
         r="25.294968"
         clip-path="none"
         inkscape:label="clip circle"
         d="M 130.29497,34.324009 A 25.294968,25.294968 0 0 1 105,59.618977 25.294968,25.294968 0 0 1 79.705032,34.324009 25.294968,25.294968 0 0 1 105,9.0290413 25.294968,25.294968 0 0 1 130.29497,34.324009 Z" />
    </clipPath>
    <clipPath
       clipPathUnits="userSpaceOnUse"
       id="clipPath2258">
      <circle
         style="display:inline;fill:#000000;stroke-width:0.264583"
         id="circle2260"
         cx="105"
         cy="34.324009"
         r="25.294968"
         clip-path="none"
         inkscape:label="clip circle"
         d="M 130.29497,34.324009 A 25.294968,25.294968 0 0 1 105,59.618977 25.294968,25.294968 0 0 1 79.705032,34.324009 25.294968,25.294968 0 0 1 105,9.0290413 25.294968,25.294968 0 0 1 130.29497,34.324009 Z" />
    </clipPath>
  </defs>
  <g
     inkscape:label="Layer 1"
     inkscape:groupmode="layer"
     id="layer1"
     transform="translate(-34.705029,-7.3078728)">
    <circle
       style="display:inline;fill:#075985;fill-opacity:1;stroke-width:0.265;stroke-dasharray:none"
       id="circle1250"
       cx="60"
       cy="32.60284"
       r="25.294968" />
    <path
       style="fill:#172554;fill-opacity:1;stroke-width:0.264583"
       d="m 81.596581,40.219063 c 1.323501,3.078847 4.177098,5.37197 7.37854,6.36279 3.201442,0.99082 6.70621,0.755593 9.890166,-0.290055 2.645793,-0.868909 5.080213,-2.268219 7.618853,-3.413007 2.53864,-1.144787 5.28283,-2.050399 8.05915,-1.833011 2.31764,0.181473 4.5222,1.143335 6.44974,2.442934 1.92755,1.299599 3.60562,2.931319 5.23684,4.587672 0.35723,0.362731 0.71329,0.727675 1.03651,1.121008 1.42147,1.72979 2.15515,3.979662 2.17812,6.21846 0.023,2.238798 -0.64197,4.459949 -1.75958,6.399977 -2.23521,3.880056 -6.14406,6.532255 -10.23918,8.343612 -7.14234,3.15921 -15.17802,4.12127 -22.929099,3.165056 C 86.76556,72.368285 79.299103,69.535068 72.626013,65.477548 68.176971,62.772343 64.000544,59.459966 61.027378,55.185344 58.054213,50.910722 56.37117,45.581197 57.174228,40.436568 c 0.401529,-2.572315 1.42236,-5.059063 3.030516,-7.106466 1.608157,-2.047403 3.810108,-3.642069 6.291402,-4.430236 2.481294,-0.788167 5.234934,-0.749126 7.656227,0.207622 2.421293,0.956747 4.481187,2.843764 5.552659,5.216521 0.850269,1.882905 1.075638,3.997008 1.891549,5.895054 z"
       id="path2240"
       inkscape:path-effect="#path-effect2242"
       inkscape:original-d="m 81.596581,40.219063 c 1.669174,-0.688461 11.512735,4.048755 17.268706,6.072735 5.755973,2.023981 10.452263,-3.497082 15.678003,-5.246018 5.22573,-1.748938 7.79132,4.687335 11.68658,7.030606 3.89526,2.343272 0.69127,0.747605 1.03651,1.121008 0.34525,0.373407 -6.54683,13.974964 -9.82064,20.962049 -3.27382,6.987082 -29.879556,-3.120999 -44.819727,-4.681895 -14.940174,-1.560896 5.758537,-23.421978 7.079019,-31.153539 1.320485,-7.731564 0.222372,6.583516 1.891549,5.895054 z"
       clip-path="url(#clipPath2258)"
       inkscape:label="path2240"
       sodipodi:nodetypes="sssssssss"
       transform="translate(-45.000003,-1.7211656)" />
    <path
       style="fill:#020617;fill-opacity:1;stroke-width:0.264583"
       d="m 79.705033,34.32401 c 0.776138,5.348857 3.941145,10.305525 8.46701,13.260049 4.525865,2.954524 10.337083,3.857614 15.546137,2.415942 1.80156,-0.498604 3.51845,-1.257927 5.27879,-1.886766 1.76034,-0.628838 3.59996,-1.132238 5.46869,-1.08658 1.74273,0.04258 3.44909,0.564581 5.01863,1.323175 1.56955,0.758594 3.01425,1.750293 4.42164,2.778973 17.27181,12.624176 29.74885,31.651286 34.44241,52.523657 4.69356,20.87237 1.56298,43.40916 -8.64185,62.212 -10.20484,18.80284 -27.39551,33.70881 -47.45424,41.14741 -20.058727,7.4386 -42.811719,7.34538 -62.808819,-0.25735 C 19.446331,199.1518 2.3783841,184.10546 -7.6720276,165.21963 -17.722439,146.33379 -20.668236,123.77211 -15.803793,102.9389 -10.93935,82.105693 1.6931844,63.181465 19.067868,50.699247 36.442551,38.217029 58.408843,32.28497 79.705033,34.32401 Z"
       id="path1255"
       inkscape:label="red"
       inkscape:original-d="m 79.705033,34.32401 c 8.004646,5.225594 16.009025,10.450925 24.013147,15.675991 8.00411,5.225065 7.16525,-1.981965 10.74748,-2.973346 3.58222,-0.991378 6.29378,2.73503 9.44027,4.102148 3.1465,1.367118 -0.60041,0.641588 -44.200897,-16.804793 z"
       inkscape:path-effect="#path-effect1240"
       clip-path="url(#clipPath2254)"
       transform="translate(-45.000003,-1.7211656)" />
  </g>
</svg>
